HIERARCHY
ROOT Hips
{
    OFFSET 0.000000 0.000000 0.000000
    CHANNELS 6 Xposition Yposition Zposition Zrotation Xrotation Yrotation
        JOINT Chest
        {
            OFFSET -0.000000 30.781853 -0.000000
            CHANNELS 3 Zrotation Xrotation Yrotation
            JOINT Neck
            {
                OFFSET -0.000000 22.926966 0.000000
                CHANNELS 3 Zrotation Xrotation Yrotation
                JOINT Head
                {
                    OFFSET -0.000000 10.450000 0.000000
                    CHANNELS 3 Zrotation Xrotation Yrotation
                    End Site
                    {
                        OFFSET -0.000000 16.150003 0.000000
                    }
                }
            }
            JOINT LeftCollar
            {
                OFFSET -0.000000 22.926966 0.000000
                CHANNELS 3 Zrotation Xrotation Yrotation
                JOINT LeftShoulder
                {
                    OFFSET 20.000000 -0.000000 0.000000
                    CHANNELS 3 Zrotation Xrotation Yrotation
                    JOINT LeftElbow
                    {
                        OFFSET 21.288839 0.000000 0.000000
                        CHANNELS 3 Zrotation Xrotation Yrotation
                        JOINT LeftWrist
                        {
                            OFFSET 24.657661 0.000000 0.000000
                            CHANNELS 3 Zrotation Xrotation Yrotation
                            End Site
                            {
                                OFFSET 0.000000 -14.250000 0.000000
                            }
                        }
                    }
                }
            }
            JOINT RightCollar
            {
                OFFSET -0.000000 22.926966 0.000000
                CHANNELS 3 Zrotation Xrotation Yrotation
                JOINT RightShoulder
                {
                    OFFSET -20.000000 0.000000 0.000000
                    CHANNELS 3 Zrotation Xrotation Yrotation
                    JOINT RightElbow
                    {
                        OFFSET -21.288839 0.000000 0.000000
                        CHANNELS 3 Zrotation Xrotation Yrotation
                        JOINT RightWrist
                        {
                            OFFSET -24.657661 0.000000 0.000000
                            CHANNELS 3 Zrotation Xrotation Yrotation
                            End Site
                            {
                                OFFSET -0.000000 -14.250000 0.000000
                            }
                        }
                    }
                }
            }
        }
    JOINT LeftHip
    {
        OFFSET 11.400001 0.000000 0.000000
        CHANNELS 3 Zrotation Xrotation Yrotation
        JOINT LeftKnee
        {
            OFFSET -0.000000 -37.900105 0.000000
            CHANNELS 3 Zrotation Xrotation Yrotation
            JOINT LeftAnkle
            {
                OFFSET -0.000000 -37.426758 0.000000
                CHANNELS 3 Zrotation Xrotation Yrotation
                End Site
                {
                    OFFSET -0.000000 -4.750000 16.150003
                }
            }
        }
    }
    JOINT RightHip
    {
        OFFSET -11.400001 0.000000 0.000000
        CHANNELS 3 Zrotation Xrotation Yrotation
        JOINT RightKnee
        {
            OFFSET -0.000000 -37.900105 0.000000
            CHANNELS 3 Zrotation Xrotation Yrotation
            JOINT RightAnkle
            {
                OFFSET -0.000000 -37.426758 0.000000
                CHANNELS 3 Zrotation Xrotation Yrotation
                End Site
                {
                    OFFSET -0.000000 -4.750000 16.150003
                }
            }
        }
    }
}
MOTION
Frames:    9
Frame Time:    0.010000
71.427704    83.408615    61.886417    -2.911548    5.649066    -136.855682    -6.037713    15.587687    -5.333642    -5.186513    3.293376    -20.269375    14.019009    0.514151    -20.479265    -15.644180    -0.539811    3.961507    -41.823601    46.012695    -35.328068    4.959843    -3.942259    -73.550934    175.707870    7.883301    -27.016735    21.847097    0.156423    0.884897    5.982677    60.347450    58.659054    -7.755639    -4.381459    57.183788    -156.055664    -1.519676    32.159256    1.727467    18.128210    0.252059    5.298242    -0.431974    -2.502797    -6.350210    -11.448347    37.807167    -4.273303    -7.181326    10.475911    -4.204697    10.617186    7.314396    13.769400    0.285763    -12.700862    
71.618195    83.423744    62.015873    -2.874223    5.746882    -137.078720    -5.985518    15.902060    -5.138900    -5.057470    3.082603    -20.074360    13.874185    0.289535    -20.242384    -15.655225    -0.540578    3.990701    -41.210178    46.204563    -35.946598    5.237171    -4.123473    -73.538116    175.838516    8.504101    -27.005527    21.836235    0.176032    0.969629    5.873136    60.304298    58.837536    -7.924537    -4.426464    57.093662    -156.271622    -1.441340    32.054523    1.821132    18.143635    0.173658    5.267452    -0.562900    -2.219870    -6.392919    -11.351204    37.798111    -4.193349    -7.800478    10.576919    -4.046817    11.363387    7.102657    13.976712    0.423537    -12.189784    
71.820328    83.439888    62.141598    -2.801259    5.855077    -137.333221    -5.900177    16.207062    -4.945446    -4.884009    2.877753    -19.827791    13.663166    0.013871    -19.948183    -15.667823    -0.541459    4.004687    -40.707504    46.322342    -36.461647    5.494621    -4.297839    -73.543991    175.957306    9.037891    -27.000877    21.833742    0.215558    1.071475    5.796403    60.212254    58.983818    -8.073740    -4.474094    56.999187    -156.448654    -1.411999    31.984114    1.942157    18.147287    0.074855    5.247257    -0.690654    -1.904112    -6.439366    -11.256658    37.800865    -4.079299    -8.468445    10.646010    -3.888453    12.141530    6.974819    14.180215    0.570194    -11.670796    
72.031502    83.458038    62.262535    -2.695629    5.974456    -137.614868    -5.782502    16.503983    -4.758601    -4.662229    2.679504    -19.523815    13.378654    -0.312352    -19.591827    -15.677576    -0.586484    4.001413    -40.357643    46.402985    -36.822838    5.757741    -4.498428    -73.568130    176.028854    9.462385    -27.006384    21.842081    0.243705    1.189483    5.744303    60.100544    59.105755    -8.215787    -4.533609    56.893074    -156.590195    -1.421113    31.941914    2.087730    18.142633    -0.050809    5.240608    -0.813763    -1.560248    -6.488568    -11.165426    37.823299    -3.934830    -9.172601    10.686055    -3.732907    12.940289    6.938484    14.408065    0.720256    -11.162745    
72.249046    83.479248    62.377464    -2.561558    6.104437    -137.918365    -5.634395    16.793505    -4.583809    -4.398456    2.485546    -19.157234    13.023514    -0.678539    -19.170328    -15.690374    -0.567547    3.983680    -40.123756    46.347351    -37.072948    5.895679    -4.527997    -73.588356    176.242767    9.847123    -27.039520    21.862028    0.263930    1.324815    5.728835    59.967403    59.188053    -8.319177    -4.560946    56.785706    -156.721161    -1.454229    31.926214    2.254344    18.132208    -0.205105    5.248853    -0.930754    -1.194444    -6.540098    -11.077743    37.869949    -3.765045    -9.899738    10.704926    -3.583807    13.749355    6.996940    14.692059    0.863302    -10.679556    
72.470367    83.504288    62.485168    -2.402879    6.241242    -138.239136    -5.460346    17.071505    -4.425283    -4.105575    2.295860    -18.725813    12.610822    -1.067994    -18.684900    -15.698699    -0.540081    3.954881    -40.030647    46.226246    -37.204735    6.033657    -4.618028    -73.618195    176.337997    10.033242    -27.082691    21.895557    0.284538    1.478606    5.746551    59.805897    59.232647    -8.374515    -4.549613    56.675606    -156.844269    -1.512878    31.933189    2.437167    18.115488    -0.382332    5.271897    -1.040029    -0.813078    -6.594463    -10.993507    37.939041    -3.575701    -10.640374    10.715229    -3.444905    14.562521    7.154644    15.056205    0.985343    -10.226069    
72.693161    83.533661    62.584831    -2.222394    6.376561    -138.573608    -5.267679    17.327976    -4.285590    -3.802177    2.113793    -18.231911    12.161843    -1.462725    -18.140856    -15.695574    -0.539866    3.916052    -40.125633    46.063484    -37.164673    6.183449    -4.729245    -73.648132    176.361633    10.060674    -27.129150    21.944664    0.313867    1.651203    5.798070    59.608814    59.237423    -8.374457    -4.498679    56.560688    -156.954254    -1.604393    31.961063    2.629497    18.087399    -0.570645    5.308441    -1.140536    -0.423523    -6.652233    -10.911926    38.024937    -3.373512    -11.391565    10.732317    -3.320457    15.379148    7.419857    15.512337    1.071616    -9.797461    
72.915451    83.567368    62.675594    -2.024384    6.500314    -138.916183    -5.065067    17.551704    -4.167713    -3.508803    1.945798    -17.681293    11.698537    -1.849590    -17.546215    -15.679777    -0.538791    3.868640    -40.406071    45.829224    -36.954868    6.281073    -4.771163    -73.668365    176.433868    9.971246    -27.176325    22.011475    0.350184    1.842581    5.880744    59.379482    59.202732    -8.280782    -4.445376    56.438328    -157.072845    -1.762357    32.028362    2.823755    18.041725    -0.757949    5.356125    -1.231365    -0.031934    -6.714177    -10.831479    38.118565    -3.166080    -12.151606    10.771935    -3.215082    16.201771    7.801757    16.064423    1.109317    -9.386075    
73.135483    83.604752    62.755959    -1.817421    6.605794    -139.255737    -4.860672    17.738489    -4.076911    -3.239521    1.797876    -17.084642    11.234923    -2.223287    -16.911795    -15.650498    -0.508786    3.811679    -40.837120    45.507904    -36.615990    6.314607    -4.744502    -73.676483    176.544281    9.748446    -27.210964    22.095968    0.387337    2.046832    5.982090    59.128365    59.139278    -8.170159    -4.350998    56.299461    -157.069229    -1.976829    32.111404    3.014158    17.976774    -0.936302    5.411463    -1.311677    0.354674    -6.781078    -10.750982    38.209599    -2.961590    -12.911908    10.847558    -3.133201    17.032593    8.302644    16.715368    1.089103    -8.985550    
